<svg width="16" height="16" viewBox="0 0 16 16" fill="none" xmlns="http://www.w3.org/2000/svg">
<path d="M2.7026 7.33398H4.6026C4.53594 6.91176 4.40816 6.51732 4.21927 6.15065C4.03038 5.78398 3.79149 5.45621 3.5026 5.16732C3.3026 5.48954 3.13316 5.83121 2.99427 6.19232C2.85538 6.55343 2.75816 6.93398 2.7026 7.33398ZM11.4026 7.33398H13.3026C13.247 6.93398 13.1498 6.55343 13.0109 6.19232C12.872 5.83121 12.7026 5.48954 12.5026 5.16732C12.2137 5.45621 11.9748 5.78398 11.7859 6.15065C11.597 6.51732 11.4693 6.91176 11.4026 7.33398ZM3.5026 10.834C3.79149 10.5451 4.03038 10.2173 4.21927 9.85065C4.40816 9.48398 4.53594 9.08954 4.6026 8.66732H2.7026C2.75816 9.06732 2.85538 9.44787 2.99427 9.80898C3.13316 10.1701 3.3026 10.5118 3.5026 10.834ZM12.5026 10.834C12.7026 10.5118 12.872 10.1701 13.0109 9.80898C13.1498 9.44787 13.247 9.06732 13.3026 8.66732H11.4026C11.4693 9.08954 11.597 9.48398 11.7859 9.85065C11.9748 10.2173 12.2137 10.5451 12.5026 10.834ZM5.96927 7.33398H7.33594V2.70065C6.74705 2.78954 6.19983 2.95343 5.69427 3.19232C5.18871 3.43121 4.73594 3.7451 4.33594 4.13398C4.76927 4.55621 5.1276 5.03676 5.41094 5.57565C5.69427 6.11454 5.88038 6.70065 5.96927 7.33398ZM8.66927 7.33398H10.0359C10.1248 6.70065 10.3109 6.11454 10.5943 5.57565C10.8776 5.03676 11.2359 4.55621 11.6693 4.13398C11.2693 3.7451 10.8165 3.43121 10.3109 3.19232C9.80538 2.95343 9.25816 2.78954 8.66927 2.70065V7.33398ZM7.33594 13.3007V8.66732H5.96927C5.88038 9.30065 5.69427 9.88676 5.41094 10.4257C5.1276 10.9645 4.76927 11.4451 4.33594 11.8673C4.73594 12.2562 5.18871 12.5701 5.69427 12.809C6.19983 13.0479 6.74705 13.2118 7.33594 13.3007ZM8.66927 13.3007C9.25816 13.2118 9.80538 13.0479 10.3109 12.809C10.8165 12.5701 11.2693 12.2562 11.6693 11.8673C11.2359 11.4451 10.8776 10.9645 10.5943 10.4257C10.3109 9.88676 10.1248 9.30065 10.0359 8.66732H8.66927V13.3007ZM8.0026 14.6673C7.08038 14.6673 6.21372 14.4923 5.4026 14.1423C4.59149 13.7923 3.88594 13.3173 3.28594 12.7173C2.68594 12.1173 2.21094 11.4118 1.86094 10.6007C1.51094 9.78954 1.33594 8.92287 1.33594 8.00065C1.33594 7.07843 1.51094 6.21176 1.86094 5.40065C2.21094 4.58954 2.68594 3.88398 3.28594 3.28398C3.88594 2.68398 4.59149 2.20898 5.4026 1.85898C6.21372 1.50898 7.08038 1.33398 8.0026 1.33398C8.92483 1.33398 9.79149 1.50898 10.6026 1.85898C11.4137 2.20898 12.1193 2.68398 12.7193 3.28398C13.3193 3.88398 13.7943 4.58954 14.1443 5.40065C14.4943 6.21176 14.6693 7.07843 14.6693 8.00065C14.6693 8.92287 14.4943 9.78954 14.1443 10.6007C13.7943 11.4118 13.3193 12.1173 12.7193 12.7173C12.1193 13.3173 11.4137 13.7923 10.6026 14.1423C9.79149 14.4923 8.92483 14.6673 8.0026 14.6673Z" fill="#617692"/>
</svg>
