<svg width="18" height="18" viewBox="0 0 18 18" fill="none" xmlns="http://www.w3.org/2000/svg">
<path d="M15 11.625C14.0625 11.625 13.1625 11.475 12.3225 11.1975C12.06 11.115 11.7675 11.175 11.5575 11.3775L9.9075 13.0275C7.785 11.9475 6.045 10.215 4.965 8.0925L6.615 6.435C6.825 6.2325 6.885 5.94 6.8025 5.6775C6.525 4.8375 6.375 3.9375 6.375 3C6.375 2.5875 6.0375 2.25 5.625 2.25H3C2.5875 2.25 2.25 2.5875 2.25 3C2.25 10.0425 7.9575 15.75 15 15.75C15.4125 15.75 15.75 15.4125 15.75 15V12.375C15.75 11.9625 15.4125 11.625 15 11.625ZM9 2.25V9.75L11.25 7.5H15.75V2.25H9Z" fill="#067394"/>
</svg>
