<svg width="16" height="16" viewBox="0 0 16 16" fill="none" xmlns="http://www.w3.org/2000/svg">
<path d="M8 2C4.68633 2 2 4.68633 2 8C2 11.3137 4.68633 14 8 14C11.3137 14 14 11.3137 14 8C13.9963 4.68789 11.3121 2.00371 8 2ZM8.21416 3.72979L10.3 2.896C10.5367 3.00312 10.7657 3.12656 10.9854 3.26543L10.9908 3.26885C11.2066 3.40557 11.4129 3.55684 11.6082 3.72158L11.625 3.73623C11.7126 3.81084 11.7978 3.88809 11.8806 3.96777C11.891 3.97803 11.902 3.98779 11.9124 3.99824C11.9992 4.08301 12.0833 4.17041 12.1646 4.26035C12.1714 4.26797 12.1778 4.27598 12.1846 4.28359C12.256 4.36357 12.3246 4.44639 12.3912 4.53057C12.4072 4.55059 12.4232 4.57061 12.4388 4.59063C12.511 4.68418 12.581 4.77939 12.647 4.87764L12.2312 6.64522L10.1854 7.32725L8.21465 5.75039L8.21416 3.72979ZM3.56104 4.5918C3.57656 4.57178 3.59238 4.55176 3.6084 4.53184C3.67422 4.44834 3.74229 4.36689 3.8126 4.2874C3.82021 4.279 3.82725 4.27041 3.83477 4.26201C3.91562 4.17188 3.99932 4.08457 4.08604 4C4.096 3.99023 4.10596 3.97998 4.11641 3.971C4.19854 3.8918 4.28301 3.81504 4.36982 3.74082L4.38984 3.72402C4.5834 3.56045 4.7877 3.41016 5.00137 3.27402L5.00918 3.26904C5.22754 3.13047 5.45508 3.00723 5.69043 2.9L7.78584 3.72979V5.7498L5.81504 7.32637L3.76924 6.64561L3.35342 4.87803C3.42002 4.77998 3.48916 4.68496 3.56104 4.5918ZM3.32002 11.069C3.26123 10.9794 3.20498 10.8881 3.15137 10.795L3.13838 10.7726C3.08506 10.68 3.03457 10.5858 2.98701 10.4902L2.98535 10.4872C2.88516 10.286 2.79717 10.079 2.72197 9.86719V9.86523C2.68643 9.76523 2.654 9.66279 2.62402 9.55977L2.61318 9.52178C2.58574 9.425 2.56084 9.32715 2.53857 9.22822C2.53662 9.21855 2.53418 9.20937 2.53223 9.1998C2.48311 8.97637 2.44785 8.7502 2.42656 8.52236L3.64756 7.05723L5.6792 7.73438L6.26885 10.0928L5.3 11.3818L3.32002 11.069ZM9.33184 13.4386C9.23184 13.4634 9.1292 13.4848 9.02656 13.504C9.01221 13.5068 8.99756 13.5092 8.9832 13.5118C8.8958 13.5274 8.80742 13.5408 8.71885 13.5518C8.69521 13.5548 8.67178 13.558 8.64824 13.5608C8.56602 13.5704 8.48301 13.5776 8.3998 13.5836C8.37363 13.5854 8.34775 13.588 8.32158 13.5896C8.21523 13.5962 8.10801 13.6 8 13.6C7.90107 13.6 7.80273 13.5974 7.70498 13.5922C7.69316 13.5922 7.68184 13.5902 7.67002 13.5894C7.58301 13.5844 7.49639 13.5778 7.40996 13.5694L7.4 13.5676C7.21064 13.5471 7.02236 13.517 6.83604 13.4776L5.65303 11.6254L6.60664 10.3538H9.39336L10.3626 11.6338L9.33184 13.4386ZM13.4692 9.2C13.4672 9.20957 13.4648 9.21885 13.4628 9.22842C13.4404 9.32725 13.4155 9.4251 13.3882 9.52197L13.3774 9.55996C13.3474 9.66299 13.315 9.76504 13.2794 9.86543V9.86738C13.2042 10.0792 13.1163 10.2862 13.016 10.4874L13.0144 10.4904C12.9665 10.5861 12.9161 10.6803 12.863 10.7728L12.85 10.7952C12.7967 10.8886 12.7405 10.9797 12.6816 11.0688L10.7084 11.38L9.73281 10.092L10.3222 7.73418L12.3538 7.05703L13.5748 8.52217C13.5536 8.7501 13.5184 8.97646 13.4692 9.2Z" fill="#617692"/>
</svg>
