<svg width="16" height="16" viewBox="0 0 16 16" fill="none" xmlns="http://www.w3.org/2000/svg">
<g clip-path="url(#clip0_2029_40040)">
<path d="M8 14.25C11.4518 14.25 14.25 11.4518 14.25 8C14.25 4.54822 11.4518 1.75 8 1.75C4.54822 1.75 1.75 4.54822 1.75 8C1.75 11.4518 4.54822 14.25 8 14.25Z" fill="#F8F9FA"/>
<path d="M8 14.5C6.26379 14.5 4.6315 13.8239 3.40379 12.5962C2.17608 11.3685 1.5 9.73624 1.5 8C1.5 6.26376 2.17613 4.6315 3.40379 3.40379C4.63145 2.17608 6.26379 1.5 8 1.5C9.73621 1.5 11.3685 2.17613 12.5962 3.40379C13.8239 4.63145 14.5 6.26376 14.5 8C14.5 9.73624 13.8239 11.3685 12.5962 12.5962C11.3685 13.8239 9.73621 14.5 8 14.5ZM8 1.99999C4.69158 1.99999 1.99999 4.6916 1.99999 8C1.99999 11.3084 4.69158 14 8 14C11.3084 14 14 11.3084 14 8C14 4.6916 11.3084 1.99999 8 1.99999Z" fill="#617692"/>
<path d="M12.3287 5.75065C12.2415 5.75065 12.1572 5.70492 12.1113 5.62441C12.11 5.62217 12.1088 5.61989 12.1076 5.6177C12.0426 5.49588 12.0887 5.34443 12.2105 5.27945C12.3303 5.21559 12.4786 5.25906 12.5454 5.37619C12.5467 5.37845 12.5479 5.38073 12.5491 5.38294C12.6141 5.50477 12.568 5.65622 12.4462 5.7212C12.4086 5.74115 12.3684 5.75065 12.3287 5.75065Z" fill="#617692"/>
<path d="M11.8067 5.00789C11.736 5.00789 11.6657 4.97808 11.6163 4.92009C10.7114 3.85871 9.39336 3.24999 8 3.24999C7.86195 3.24999 7.75 3.13807 7.75 3C7.75 2.86192 7.86195 2.75 8 2.75C9.54001 2.75 10.9968 3.42275 11.9968 4.59572C12.0864 4.70079 12.0738 4.85859 11.9687 4.94817C11.9217 4.98826 11.864 5.00789 11.8067 5.00789Z" fill="#617692"/>
</g>
<defs>
<clipPath id="clip0_2029_40040">
<rect width="13" height="13" fill="white" transform="translate(1.5 1.5)"/>
</clipPath>
</defs>
</svg>
