<svg width="21" height="20" viewBox="0 0 21 20" fill="none" xmlns="http://www.w3.org/2000/svg">
<mask id="mask0_2029_39577" style="mask-type:alpha" maskUnits="userSpaceOnUse" x="0" y="0" width="21" height="20">
<rect x="0.5" width="20" height="20" fill="#D9D9D9"/>
</mask>
<g mask="url(#mask0_2029_39577)">
<path d="M4.3324 14.9615C3.83129 14.3503 3.43837 13.7059 3.15365 13.0281C2.86892 12.3502 2.6849 11.6186 2.60156 10.8333H3.87719C3.96052 11.4444 4.1133 12.0243 4.33552 12.5729C4.55774 13.1215 4.84941 13.625 5.21052 14.0833L4.3324 14.9615ZM2.60156 9.16667C2.70198 8.38139 2.89031 7.65118 3.16656 6.97604C3.44267 6.30076 3.83129 5.65757 4.3324 5.04646L5.21052 5.92458C4.84941 6.38292 4.55774 6.88507 4.33552 7.43104C4.1133 7.97701 3.96052 8.55556 3.87719 9.16667H2.60156ZM9.62719 17.875C8.80983 17.7756 8.0724 17.5835 7.4149 17.2988C6.75726 17.014 6.11865 16.6324 5.49906 16.1538L6.37719 15.25C6.84733 15.6058 7.3524 15.9031 7.8924 16.1419C8.43254 16.3806 9.0108 16.5417 9.62719 16.625V17.875ZM6.41885 4.74208L5.5151 3.83812C6.13469 3.35951 6.7733 2.97917 7.43094 2.69708C8.08844 2.41514 8.83441 2.22444 9.66885 2.125V3.375C9.04385 3.45833 8.4592 3.61806 7.9149 3.85417C7.37059 4.09028 6.87191 4.38625 6.41885 4.74208ZM8.62719 13.3654V6.63458L13.8676 10L8.62719 13.3654ZM11.3355 17.875V16.625C13.0161 16.3889 14.4084 15.6458 15.5126 14.3958C16.6168 13.1458 17.1689 11.6806 17.1689 10C17.1689 8.31944 16.6168 6.85417 15.5126 5.60417C14.4084 4.35417 13.0161 3.61111 11.3355 3.375V2.125C13.3622 2.34514 15.0494 3.2025 16.3972 4.69708C17.745 6.19181 18.4189 7.95944 18.4189 10C18.4189 12.0406 17.745 13.8082 16.3972 15.3029C15.0494 16.7975 13.3622 17.6549 11.3355 17.875Z" fill="#067394"/>
</g>
</svg>
