<svg width="24" height="24" viewBox="0 0 24 24" fill="none" xmlns="http://www.w3.org/2000/svg">
<mask id="mask0_1360_25347" style="mask-type:alpha" maskUnits="userSpaceOnUse" x="0" y="0" width="24" height="24">
<rect width="24" height="24" fill="#D9D9D9"/>
</mask>
<g mask="url(#mask0_1360_25347)">
<path d="M3 22V5.75524C3 5.26475 3.16992 4.84958 3.50975 4.50975C3.84958 4.16992 4.26475 4 4.75524 4H19.6929C20.1833 4 20.5985 4.16992 20.9383 4.50975C21.2782 4.84958 21.4481 5.26475 21.4481 5.75524V16.809C21.4481 17.2995 21.2782 17.7147 20.9383 18.0545C20.5985 18.3944 20.1833 18.5643 19.6929 18.5643H6.43571L3 22ZM5.81576 17.1079H19.6929C19.7676 17.1079 19.8361 17.0767 19.8982 17.0144C19.9605 16.9523 19.9917 16.8838 19.9917 16.809V5.75524C19.9917 5.68048 19.9605 5.61202 19.8982 5.54988C19.8361 5.48758 19.7676 5.45643 19.6929 5.45643H4.75524C4.68048 5.45643 4.61202 5.48758 4.54988 5.54988C4.48758 5.61202 4.45643 5.68048 4.45643 5.75524V18.4524L5.81576 17.1079Z" fill="#F0F1F2"/>
</g>
</svg>
